<svg id="Layer_1" enable-background="new 0 0 80 80" viewBox="0 0 80 80" xmlns="http://www.w3.org/2000/svg"><g><path d="m51.94 52.03-4.77 2.69-2.66 1.51-4.49 2.54-11.26-6.7 4.7-2.62 2.67-1.49 4.8-2.68z" fill="#ffab08"/><path d="m40.02 58.78-11.26-6.71v13.23l11.26 6.7" fill="#fcc163"/><path d="m40.02 72 11.92-6.75v-13.22l-11.92 6.75z" fill="#f29e0a"/><path d="m36.13 47.96-2.67 1.49 11.05 6.78v3.87l2.66-1.5v-3.88z" fill="#d37902"/><g fill="#4d4d4d"><path d="m35.83 37.37-4.35 13.18 1.08-.59 4.14-12.59z"/><path d="m44.2 37.37h-.87l3.88 11.76 1.5 4.55v13.4l.83-.47v-12.99l-1.26-3.84z"/><path d="m38.27 37.37h-.84l-2.1 11.04-1.33 7.03v12.98l.83.49-.01-13.39 1.46-7.63z"/></g><path d="m32.76 28.17v7.4c0 4.2 15.18 4.2 15.18 0v-8.21z" fill="#415b70"/><path d="m62.32 38.43-12.61-6.52c-2.08-1.08-2.08-4.06 0-5.13l12.61-6.52c1.24-.67 1.96-1.67 1.98-2.72.01-.87-.46-1.65-1.28-2.12-.58-.34-1.33-.51-2.16-.51-1.16 0-2.36.33-3.34.93l-14.56 9.39c-1.59 1.02-3.63 1.02-5.22 0l-14.56-9.39c-.97-.6-2.18-.93-3.34-.93-.83 0-1.58.18-2.16.51-.83.48-1.29 1.25-1.28 2.12.01 1.06.73 2.05 1.98 2.72l12.61 6.52c2.08 1.08 2.08 4.06 0 5.13l-12.61 6.52c-1.24.67-1.96 1.67-1.98 2.72-.01.87.45 1.65 1.28 2.12.58.34 1.33.51 2.16.51 1.16 0 2.36-.33 3.34-.93l14.56-9.39c1.59-1.02 3.63-1.02 5.22 0l14.56 9.39c.97.6 2.18.93 3.34.93.83 0 1.58-.18 2.16-.51.83-.48 1.29-1.25 1.28-2.12-.01-1.05-.73-2.05-1.98-2.72z" fill="#7489a4"/><g><ellipse cx="40.35" cy="25.99" fill="#556d84" rx="8.19" ry="3.5"/><path d="m40.35 29.49c-4.52 0-8.19-1.57-8.19-3.5v1.75c0 1.93 3.67 3.5 8.19 3.5s8.19-1.57 8.19-3.5v-1.75c0 1.93-3.67 3.5-8.19 3.5z" fill="#415b70"/></g><g><path d="m58.7 12.1 1.07 6.09h.73l1.07-6.09z" fill="#3e586d"/><path d="m65.96 14.24-3.34-1.73c-.55-.29-.55-1.08 0-1.36l3.34-1.73c.33-.18.52-.44.52-.72 0-.23-.12-.44-.34-.56-.15-.09-.34-.14-.56-.14-.31 0-.63.09-.89.25l-3.86 2.49c-.42.27-.96.27-1.38 0l-3.86-2.49c-.27-.16-.59-.25-.9-.25-.22 0-.42.05-.57.14-.22.13-.34.33-.34.56 0 .28.19.54.52.72l3.34 1.73c.55.29.55 1.08 0 1.36l-3.34 1.73c-.33.18-.52.44-.52.72 0 .23.12.44.34.56.15.09.35.14.57.14.31 0 .63-.09.89-.25l3.86-2.49c.42-.27.96-.27 1.38 0l3.86 2.49c.26.16.58.25.89.25.22 0 .42-.05.57-.14.22-.13.34-.33.34-.56 0-.28-.19-.54-.52-.72z" fill="#556d84"/></g><g><path d="m58.83 35.83.98 5.51h.65l.97-5.51z" fill="#3e586d"/><path d="m65.41 37.77-3.03-1.56c-.5-.26-.5-.97 0-1.23l3.03-1.56c.3-.16.47-.4.47-.65 0-.21-.11-.39-.31-.51-.14-.08-.32-.12-.52-.12-.28 0-.57.08-.8.22l-3.5 2.25c-.38.25-.87.25-1.25 0l-3.5-2.25c-.23-.14-.52-.22-.8-.22-.2 0-.38.04-.52.12-.2.11-.31.3-.31.51 0 .25.18.49.47.65l3.03 1.56c.5.26.5.97 0 1.23l-3.03 1.56c-.3.16-.47.4-.47.65 0 .21.11.4.31.51.14.08.32.12.52.12.28 0 .57-.08.8-.22l3.5-2.25c.38-.25.87-.25 1.25 0l3.5 2.25c.23.14.52.22.8.22.2 0 .38-.04.52-.12.2-.11.31-.3.31-.51 0-.25-.17-.49-.47-.65z" fill="#556d84"/></g><g><path d="m18.57 35.83.97 5.51h.65l.98-5.51z" fill="#3e586d"/><path d="m25.14 37.77-3.03-1.56c-.5-.26-.5-.97 0-1.23l3.03-1.56c.3-.16.47-.4.47-.65 0-.21-.11-.39-.31-.51-.14-.08-.32-.12-.52-.12-.28 0-.57.08-.8.22l-3.5 2.25c-.38.25-.87.25-1.25 0l-3.5-2.25c-.23-.14-.52-.22-.8-.22-.2 0-.38.04-.52.12-.2.11-.31.3-.31.51 0 .25.18.49.47.65l3.03 1.56c.5.26.5.97 0 1.23l-3.03 1.56c-.3.16-.47.4-.47.65 0 .21.11.4.31.51.14.08.32.12.52.12.28 0 .57-.08.8-.22l3.5-2.25c.38-.25.87-.25 1.25 0l3.5 2.25c.23.14.52.22.8.22.2 0 .38-.04.52-.12.2-.11.31-.3.31-.51 0-.25-.17-.49-.47-.65z" fill="#556d84"/></g><g><path d="m18.43 12.1 1.07 6.09h.73l1.07-6.09z" fill="#3e586d"/><path d="m25.69 14.24-3.34-1.73c-.55-.29-.55-1.08 0-1.36l3.34-1.73c.33-.18.52-.44.52-.72 0-.23-.12-.44-.34-.56-.14-.09-.34-.14-.56-.14-.31 0-.63.09-.89.25l-3.86 2.49c-.42.27-.96.27-1.38 0l-3.86-2.49c-.27-.16-.59-.25-.9-.25-.22 0-.42.05-.57.14-.22.13-.34.33-.34.56 0 .28.19.54.52.72l3.34 1.73c.55.29.55 1.08 0 1.36l-3.34 1.73c-.33.18-.52.44-.52.72 0 .23.12.44.34.56.15.09.35.14.57.14.31 0 .63-.09.89-.25l3.86-2.49c.42-.27.96-.27 1.38 0l3.86 2.49c.26.16.58.25.89.25.22 0 .42-.05.57-.14.22-.13.34-.33.34-.56.01-.28-.19-.54-.52-.72z" fill="#556d84"/></g></g></svg>